<?xml version="1.0" encoding="UTF-8"?>
<svg id="Page01" xmlns="http://www.w3.org/2000/svg" xmlns:xlink="http://www.w3.org/1999/xlink" viewBox="0 0 1080 1080">
  <defs>
    <style>
      .cls-1 {
        fill: url(#linear-gradient-2);
      }

      .cls-2 {
        fill: #f2f1f2;
      }

      .cls-3 {
        fill: #f05824;
      }

      .cls-4 {
        fill: url(#linear-gradient-4);
      }

      .cls-5 {
        fill: url(#linear-gradient-3);
      }

      .cls-6 {
        fill: url(#linear-gradient-5);
      }

      .cls-7 {
        fill: url(#linear-gradient-6);
      }

      .cls-8 {
        fill: url(#linear-gradient);
      }
    </style>
    <linearGradient id="linear-gradient" x1="443.88" y1="507.49" x2="443.88" y2="487.55" gradientUnits="userSpaceOnUse">
      <stop offset="0" stop-color="#f05824"/>
      <stop offset=".45" stop-color="#ed5524"/>
      <stop offset=".68" stop-color="#e64d28"/>
      <stop offset=".87" stop-color="#d8402d"/>
      <stop offset="1" stop-color="#cb3233"/>
    </linearGradient>
    <linearGradient id="linear-gradient-2" x1="492.33" x2="492.33" y2="475.01" xlink:href="#linear-gradient"/>
    <linearGradient id="linear-gradient-3" x1="540.79" y1="507.32" x2="540.79" y2="463.09" xlink:href="#linear-gradient"/>
    <linearGradient id="linear-gradient-4" x1="589.25" y1="507.32" x2="589.25" y2="449.93" xlink:href="#linear-gradient"/>
    <linearGradient id="linear-gradient-5" x1="637.7" y1="507.32" x2="637.7" y2="437.39" xlink:href="#linear-gradient"/>
    <linearGradient id="linear-gradient-6" x1="625.22" y1="387.43" x2="807.3" y2="387.43" gradientUnits="userSpaceOnUse">
      <stop offset="0" stop-color="#f05822"/>
      <stop offset=".45" stop-color="#ed5523"/>
      <stop offset=".68" stop-color="#e64d26"/>
      <stop offset=".87" stop-color="#d8402c"/>
      <stop offset="1" stop-color="#cb3233"/>
    </linearGradient>
  </defs>
  <g>
    <path class="cls-3" d="M305.77,773.45v-27.37h39.96v2.33h-37.64v10h37.64v2.33h-37.64v12.71h-2.33ZM352.05,773.45v-27.37h2.33v27.37h-2.33Z"/>
    <path class="cls-3" d="M413.33,774.07l-41.67-24.73v24.11h-2.33v-27.99l41.67,24.73v-24.11h2.33v27.99Z"/>
    <path class="cls-3" d="M474.22,773.45l-5.5-5.78h-35.7l-5.5,5.78h-3.22l26.59-27.87,26.55,27.87h-3.22ZM435.23,765.35h31.28l-15.62-16.4-15.66,16.4Z"/>
    <path class="cls-3" d="M532.4,774.07l-41.67-24.73v24.11h-2.33v-27.99l41.67,24.73v-24.11h2.33v27.99Z"/>
    <path class="cls-3" d="M562.83,773.45c-5.71,0-9.93-1.13-12.66-3.39-2.73-2.26-4.09-5.61-4.09-10.06v-.31c0-9.07,5.58-13.6,16.74-13.6h24.34v2.33h-24.34c-4.99,0-8.64.91-10.95,2.73-2.31,1.82-3.47,4.67-3.47,8.55v.31c0,3.82,1.16,6.63,3.47,8.43,2.31,1.8,5.96,2.69,10.95,2.69h24.34v2.33h-24.34Z"/>
    <path class="cls-3" d="M601.16,773.45v-27.37h39.34v2.33h-37.02v10h37.02v2.33h-37.02v10.39h37.02v2.33h-39.34Z"/>
    <path class="cls-3" d="M655.47,773.45v-27.37h2.33v27.37h-2.33Z"/>
    <path class="cls-3" d="M716.09,755.74c0,2.46-.62,4.39-1.86,5.79-1.24,1.41-3.17,2.35-5.78,2.81l6.47,9.11h-2.83l-6.28-8.8c-.39.03-.99.04-1.82.04h-28.92v8.76h-2.33v-27.37h31.24c8.06,0,12.09,3.15,12.09,9.46v.19ZM713.76,755.74v-.19c0-2.45-.78-4.26-2.33-5.41-1.55-1.15-4.03-1.73-7.44-1.73h-28.92v13.95h28.92c3.54,0,6.05-.51,7.54-1.53,1.49-1.02,2.23-2.72,2.23-5.1Z"/>
    <path class="cls-3" d="M745.24,773.45c-5.71,0-9.93-1.13-12.66-3.39-2.73-2.26-4.09-5.61-4.09-10.06v-.31c0-9.07,5.58-13.6,16.74-13.6h13.53c11.16,0,16.74,4.54,16.74,13.6v.31c0,4.44-1.36,7.8-4.09,10.06-2.73,2.26-6.94,3.39-12.66,3.39h-13.53ZM745.24,771.13h13.53c4.99,0,8.64-.9,10.95-2.69,2.31-1.8,3.47-4.61,3.47-8.43v-.31c0-3.88-1.16-6.72-3.47-8.55-2.31-1.82-5.96-2.73-10.95-2.73h-13.53c-4.99,0-8.64.91-10.95,2.73-2.31,1.82-3.47,4.67-3.47,8.55v.31c0,3.82,1.16,6.63,3.47,8.43,2.31,1.8,5.96,2.69,10.95,2.69Z"/>
  </g>
  <g>
    <path class="cls-2" d="M144.13,705.26c-23.61,0-41.09-4.57-51.95-13.58-10.69-8.86-15.88-21.87-15.88-39.76v-1.36c0-36.35,22.19-54.02,67.83-54.02h59.51c45.65,0,67.83,17.67,67.83,54.02v1.36c0,17.89-5.19,30.9-15.88,39.76-10.86,9.01-28.34,13.58-51.95,13.58h-59.51ZM142.59,622.39c-11.88,0-20.29,2.24-25.69,6.85-5.6,4.78-8.44,11.89-8.44,21.14v1.36c0,9.04,2.88,16.05,8.55,20.82,5.45,4.59,13.82,6.82,25.58,6.82h62.58c11.76,0,20.12-2.23,25.58-6.82,5.67-4.78,8.55-11.78,8.55-20.82v-1.36c0-9.25-2.84-16.36-8.44-21.14-5.4-4.61-13.81-6.85-25.69-6.85h-62.58Z"/>
    <path class="cls-2" d="M323.74,707.18v-108.73h125.98c36.16,0,53,13.37,53,42.09v.85c0,13.69-3.92,23.39-11.99,29.68-8.4,6.54-22.2,9.86-41.01,9.86h-93.81v26.26h-32.17ZM355.92,660h94.15c6.94,0,11.94-1.37,15.27-4.19,2.46-2.08,5.39-6.04,5.39-13.06v-.85c0-5.71-1.79-10.17-5.32-13.25-3.35-2.92-8.37-4.33-15.34-4.33h-94.15v35.69Z"/>
    <path class="cls-2" d="M640.89,707.18l-15.18-16.88h-104.94l-15.17,16.88h-39.09l106.82-112.57,106.67,112.57h-39.11ZM536.41,672.96h73.84l-36.92-41.14-36.92,41.14Z"/>
    <path class="cls-2" d="M730.92,706.75c-23.61,0-41.09-4.57-51.95-13.58-10.69-8.86-15.88-21.87-15.88-39.76v-1.36c0-36.35,22.19-54.02,67.83-54.02h101.25v25.86h-102.79c-11.88,0-20.29,2.24-25.69,6.85-5.6,4.78-8.44,11.89-8.44,21.14v1.36c0,9.04,2.88,16.05,8.55,20.82,5.45,4.59,13.82,6.82,25.58,6.82h102.79v25.87h-101.25Z"/>
    <polygon class="cls-2" points="842.29 707.18 842.29 598.45 1003.71 598.45 1003.71 619.54 874.46 619.54 874.46 644.14 1003.71 644.14 1003.71 661.48 874.46 661.48 874.46 686.26 1003.71 686.26 1003.71 707.18 842.29 707.18"/>
  </g>
  <g>
    <rect class="cls-8" x="424.71" y="487.55" width="38.33" height="19.94"/>
    <rect class="cls-1" x="473.17" y="475.01" width="38.33" height="32.48"/>
    <rect class="cls-5" x="521.63" y="463.09" width="38.33" height="44.22"/>
    <rect class="cls-4" x="570.08" y="449.93" width="38.33" height="57.39"/>
    <rect class="cls-6" x="618.54" y="437.39" width="38.33" height="69.93"/>
  </g>
  <path class="cls-2" d="M627.6,366.1h-175.2c-77.11,0-114.63,29.88-114.63,91.3v2.32c0,30.24,8.77,52.19,26.85,67.16,18.36,15.23,47.89,22.96,87.78,22.96h175.2c39.89,0,69.45-7.73,87.78-22.96,18.07-14.97,26.85-36.93,26.85-67.16v-2.32c0-61.42-37.51-91.3-114.63-91.3ZM687.85,459.42c0,15.27-4.86,27.11-14.45,35.16-9.2,7.76-23.32,11.55-43.22,11.55h-180.35c-19.87,0-34.02-3.78-43.22-11.55-9.59-8.06-14.45-19.9-14.45-35.16v-2.32c0-15.62,4.8-27.63,14.25-35.72,9.13-7.8,23.32-11.58,43.42-11.58h180.35c20.09,0,34.28,3.78,43.42,11.58,9.46,8.09,14.25,20.09,14.25,35.72v2.32Z"/>
  <path class="cls-7" d="M807.3,297.59v92.71c0,32.63-12.99,63.92-36.11,86.95h0c.75-6.1,1.11-12.43,1.11-19.05v-2.32c0-53.56-24.4-117.4-140.72-117.4h-6.36,0c26.21-26.19,61.75-40.91,98.81-40.91h83.27Z"/>
</svg>